<svg width="63" height="62" viewBox="0 0 63 62" fill="none" xmlns="http://www.w3.org/2000/svg">
<g filter="url(#filter0_ii_8_63)">
<g clip-path="url(#clip0_8_63)">
<rect width="63" height="62" rx="31" fill="#232124" fill-opacity="0.65"/>
<g filter="url(#filter1_f_8_63)">
<ellipse cx="31.9165" cy="74.4614" rx="18.9165" ry="17.4614" fill="white" fill-opacity="0.4"/>
</g>
<path d="M35 40V32C35 31.7348 34.8946 31.4804 34.7071 31.2929C34.5196 31.1054 34.2652 31 34 31H30C29.7348 31 29.4804 31.1054 29.2929 31.2929C29.1054 31.4804 29 31.7348 29 32V40" stroke="white" stroke-width="2" stroke-linecap="round" stroke-linejoin="round"/>
<path d="M23 29C22.9999 28.7091 23.0633 28.4216 23.1858 28.1577C23.3082 27.8938 23.4868 27.6598 23.709 27.472L30.709 21.472C31.07 21.1669 31.5274 20.9995 32 20.9995C32.4726 20.9995 32.93 21.1669 33.291 21.472L40.291 27.472C40.5132 27.6598 40.6918 27.8938 40.8142 28.1577C40.9367 28.4216 41.0001 28.7091 41 29V38C41 38.5304 40.7893 39.0391 40.4142 39.4142C40.0391 39.7893 39.5304 40 39 40H25C24.4696 40 23.9609 39.7893 23.5858 39.4142C23.2107 39.0391 23 38.5304 23 38V29Z" stroke="white" stroke-width="2" stroke-linecap="round" stroke-linejoin="round"/>
</g>
<rect x="0.5" y="0.5" width="62" height="61" rx="30.5" stroke="url(#paint0_linear_8_63)"/>
</g>
<defs>
<filter id="filter0_ii_8_63" x="0" y="0" width="63" height="66" filterUnits="userSpaceOnUse" color-interpolation-filters="sRGB">
<feFlood flood-opacity="0" result="BackgroundImageFix"/>
<feBlend mode="normal" in="SourceGraphic" in2="BackgroundImageFix" result="shape"/>
<feColorMatrix in="SourceAlpha" type="matrix" values="0 0 0 0 0 0 0 0 0 0 0 0 0 0 0 0 0 0 127 0" result="hardAlpha"/>
<feOffset dy="4"/>
<feGaussianBlur stdDeviation="4"/>
<feComposite in2="hardAlpha" operator="arithmetic" k2="-1" k3="1"/>
<feColorMatrix type="matrix" values="0 0 0 0 0.966346 0 0 0 0 0.969258 0 0 0 0 1 0 0 0 0.22 0"/>
<feBlend mode="normal" in2="shape" result="effect1_innerShadow_8_63"/>
<feColorMatrix in="SourceAlpha" type="matrix" values="0 0 0 0 0 0 0 0 0 0 0 0 0 0 0 0 0 0 127 0" result="hardAlpha"/>
<feOffset dy="4"/>
<feGaussianBlur stdDeviation="4"/>
<feComposite in2="hardAlpha" operator="arithmetic" k2="-1" k3="1"/>
<feColorMatrix type="matrix" values="0 0 0 0 0.966346 0 0 0 0 0.969258 0 0 0 0 1 0 0 0 0.22 0"/>
<feBlend mode="normal" in2="effect1_innerShadow_8_63" result="effect2_innerShadow_8_63"/>
</filter>
<filter id="filter1_f_8_63" x="-12.222" y="31.778" width="88.277" height="85.3667" filterUnits="userSpaceOnUse" color-interpolation-filters="sRGB">
<feFlood flood-opacity="0" result="BackgroundImageFix"/>
<feBlend mode="normal" in="SourceGraphic" in2="BackgroundImageFix" result="shape"/>
<feGaussianBlur stdDeviation="12.611" result="effect1_foregroundBlur_8_63"/>
</filter>
<linearGradient id="paint0_linear_8_63" x1="32.0526" y1="-2.25963e-08" x2="31.9829" y2="31" gradientUnits="userSpaceOnUse">
<stop stop-color="white"/>
<stop offset="1" stop-color="#666666" stop-opacity="0"/>
</linearGradient>
<clipPath id="clip0_8_63">
<rect width="63" height="62" rx="31" fill="white"/>
</clipPath>
</defs>
</svg>
