<svg width="63" height="62" viewBox="0 0 63 62" fill="none" xmlns="http://www.w3.org/2000/svg">
<g filter="url(#filter0_ii_10_18)">
<rect width="63" height="62" rx="31" fill="#232124" fill-opacity="0.65"/>
<rect x="0.5" y="0.5" width="62" height="61" rx="30.5" stroke="url(#paint0_linear_10_18)"/>
<path d="M29.671 23.136C29.7261 22.5563 29.9953 22.018 30.4261 21.6263C30.8569 21.2345 31.4182 21.0174 32.0005 21.0174C32.5828 21.0174 33.1441 21.2345 33.5749 21.6263C34.0057 22.018 34.2749 22.5563 34.33 23.136C34.3631 23.5105 34.486 23.8714 34.6881 24.1883C34.8903 24.5053 35.1659 24.7688 35.4915 24.9567C35.8171 25.1445 36.1831 25.2512 36.5587 25.2676C36.9343 25.284 37.3082 25.2097 37.649 25.051C38.1781 24.8108 38.7777 24.776 39.331 24.9535C39.8843 25.131 40.3518 25.508 40.6425 26.0111C40.9332 26.5143 41.0263 27.1076 40.9036 27.6756C40.781 28.2436 40.4514 28.7456 39.979 29.084C39.6714 29.2998 39.4203 29.5866 39.2469 29.92C39.0736 30.2534 38.983 30.6237 38.983 30.9995C38.983 31.3753 39.0736 31.7456 39.2469 32.079C39.4203 32.4124 39.6714 32.6992 39.979 32.915C40.4514 33.2534 40.781 33.7554 40.9036 34.3234C41.0263 34.8914 40.9332 35.4847 40.6425 35.9879C40.3518 36.4911 39.8843 36.868 39.331 37.0455C38.7777 37.223 38.1781 37.1882 37.649 36.948C37.3082 36.7893 36.9343 36.715 36.5587 36.7314C36.1831 36.7478 35.8171 36.8545 35.4915 37.0423C35.1659 37.2302 34.8903 37.4937 34.6881 37.8107C34.486 38.1276 34.3631 38.4885 34.33 38.863C34.2749 39.4427 34.0057 39.981 33.5749 40.3727C33.1441 40.7645 32.5828 40.9816 32.0005 40.9816C31.4182 40.9816 30.8569 40.7645 30.4261 40.3727C29.9953 39.981 29.7261 39.4427 29.671 38.863C29.6379 38.4884 29.5151 38.1273 29.3129 37.8103C29.1106 37.4932 28.835 37.2296 28.5092 37.0417C28.1835 36.8538 27.8173 36.7472 27.4416 36.7309C27.0659 36.7146 26.6918 36.7891 26.351 36.948C25.8219 37.1882 25.2223 37.223 24.669 37.0455C24.1157 36.868 23.6482 36.4911 23.3575 35.9879C23.0668 35.4847 22.9737 34.8914 23.0964 34.3234C23.219 33.7554 23.5486 33.2534 24.021 32.915C24.3286 32.6992 24.5797 32.4124 24.7531 32.079C24.9264 31.7456 25.017 31.3753 25.017 30.9995C25.017 30.6237 24.9264 30.2534 24.7531 29.92C24.5797 29.5866 24.3286 29.2998 24.021 29.084C23.5493 28.7454 23.2202 28.2436 23.0979 27.676C22.9756 27.1084 23.0686 26.5155 23.359 26.0127C23.6494 25.5099 24.1163 25.133 24.6691 24.9552C25.2219 24.7775 25.821 24.8116 26.35 25.051C26.6908 25.2097 27.0647 25.284 27.4403 25.2676C27.8159 25.2512 28.1819 25.1445 28.5075 24.9567C28.8331 24.7688 29.1087 24.5053 29.3109 24.1883C29.513 23.8714 29.6359 23.5105 29.669 23.136" stroke="white" stroke-width="2" stroke-linecap="round" stroke-linejoin="round"/>
<path d="M32 34C33.6569 34 35 32.6569 35 31C35 29.3431 33.6569 28 32 28C30.3431 28 29 29.3431 29 31C29 32.6569 30.3431 34 32 34Z" stroke="white" stroke-width="2" stroke-linecap="round" stroke-linejoin="round"/>
</g>
<defs>
<filter id="filter0_ii_10_18" x="0" y="0" width="63" height="66" filterUnits="userSpaceOnUse" color-interpolation-filters="sRGB">
<feFlood flood-opacity="0" result="BackgroundImageFix"/>
<feBlend mode="normal" in="SourceGraphic" in2="BackgroundImageFix" result="shape"/>
<feColorMatrix in="SourceAlpha" type="matrix" values="0 0 0 0 0 0 0 0 0 0 0 0 0 0 0 0 0 0 127 0" result="hardAlpha"/>
<feOffset dy="4"/>
<feGaussianBlur stdDeviation="4"/>
<feComposite in2="hardAlpha" operator="arithmetic" k2="-1" k3="1"/>
<feColorMatrix type="matrix" values="0 0 0 0 0.966346 0 0 0 0 0.969258 0 0 0 0 1 0 0 0 0.22 0"/>
<feBlend mode="normal" in2="shape" result="effect1_innerShadow_10_18"/>
<feColorMatrix in="SourceAlpha" type="matrix" values="0 0 0 0 0 0 0 0 0 0 0 0 0 0 0 0 0 0 127 0" result="hardAlpha"/>
<feOffset dy="4"/>
<feGaussianBlur stdDeviation="4"/>
<feComposite in2="hardAlpha" operator="arithmetic" k2="-1" k3="1"/>
<feColorMatrix type="matrix" values="0 0 0 0 0.966346 0 0 0 0 0.969258 0 0 0 0 1 0 0 0 0.22 0"/>
<feBlend mode="normal" in2="effect1_innerShadow_10_18" result="effect2_innerShadow_10_18"/>
</filter>
<linearGradient id="paint0_linear_10_18" x1="32.0526" y1="-2.25963e-08" x2="31.9829" y2="31" gradientUnits="userSpaceOnUse">
<stop stop-color="white"/>
<stop offset="1" stop-color="#666666" stop-opacity="0"/>
</linearGradient>
</defs>
</svg>
